<?xml version="1.0" encoding="utf-8"?>
<!-- Svg Vector Icons : http://www.onlinewebfonts.com/icon -->
<!DOCTYPE svg PUBLIC "-//W3C//DTD SVG 1.1//EN" "http://www.w3.org/Graphics/SVG/1.1/DTD/svg11.dtd">
<svg version="1.1" xmlns="http://www.w3.org/2000/svg" xmlns:xlink="http://www.w3.org/1999/xlink" x="0px" y="0px" viewBox="0 0 1000 1000" enable-background="new 0 0 1000 1000" xml:space="preserve">
<metadata> Svg Vector Icons : http://www.onlinewebfonts.com/icon </metadata>
<g><path d="M983.9,485.3L733.8,235.2c-7.8-7.8-21.5-7.8-29.3,0l-54.2,54.2c-8.1,8.1-8.1,21.2,0,29.3l181.2,181.2L650.3,681.2c-8.1,8.1-8.1,21.2,0,29.3l54.2,54.2c3.9,3.9,9.2,6.1,14.7,6.1c5.5,0,10.8-2.2,14.7-6.1l250.1-250.1C992,506.5,992,493.4,983.9,485.3z"/><path d="M349.7,681.2L168.5,500l181.2-181.2c3.9-3.9,6.1-9.2,6.1-14.7c0-5.5-2.2-10.8-6.1-14.7l-54.2-54.2c-3.9-3.9-9.2-6.1-14.7-6.1s-10.8,2.2-14.7,6.1L16.1,485.3c-8.1,8.1-8.1,21.2,0,29.3l250.1,250.1c3.9,3.9,9.2,6.1,14.7,6.1c5.5,0,10.8-2.2,14.7-6.1l54.2-54.2C357.8,702.4,357.8,689.3,349.7,681.2z"/><path d="M642.2,151c-2.6-4.8-7.1-8.4-12.3-10l-44-13c-11-3.3-22.5,3-25.8,14L356.1,833.2c-1.6,5.3-1,11,1.7,15.8c2.6,4.8,7.1,8.4,12.3,10l44,13c2,0.6,3.9,0.9,5.9,0.9c9,0,17.2-5.8,19.9-14.9l204.1-691.1C645.5,161.5,644.9,155.9,642.2,151z"/></g>
</svg>